<svg width="45" height="46" viewBox="0 0 45 46" fill="none" xmlns="http://www.w3.org/2000/svg">
<path d="M33.2205 23.1548C27.397 23.1548 22.7646 27.7648 22.7646 33.5602C22.7646 39.3556 27.397 43.9656 33.2205 43.9656C38.9117 43.9656 43.6764 39.3556 43.6764 33.5602C43.5441 27.7648 38.9117 23.1548 33.2205 23.1548ZM37.9852 31.7162L32.6911 36.9848C32.4264 37.2482 32.0294 37.3799 31.7646 37.3799C31.4999 37.3799 31.1029 37.2482 30.8382 36.9848L28.1911 34.3505C27.6617 33.8236 27.6617 33.0334 28.1911 32.5065C28.7205 31.9796 29.5146 31.9796 30.0441 32.5065L31.7646 34.2188L36.1323 29.8722C36.6617 29.3454 37.4558 29.3454 37.9852 29.8722C38.5146 30.3991 38.5146 31.1894 37.9852 31.7162Z" fill="#24B53B"/>
<path d="M27.9264 1.81714H5.4264C3.1764 1.81714 1.45581 3.66114 1.45581 5.76857V37.38C1.45581 39.6192 3.1764 41.3314 5.4264 41.3314H22.6323C21.044 39.224 19.9852 36.458 19.9852 33.5603C19.9852 33.0334 19.9852 32.6383 20.1176 32.1114H8.07346C7.27934 32.1114 6.74993 31.5846 6.74993 30.7943C6.74993 30.1357 7.27934 29.4771 8.07346 29.4771H20.7793C21.044 28.5551 21.4411 27.6331 21.9705 26.8429H8.07346C7.27934 26.8429 6.74993 26.316 6.74993 25.5257C6.74993 24.8671 7.27934 24.2086 8.07346 24.2086H24.0882C26.2058 22.2329 28.8529 20.9157 31.897 20.5206V5.76857C31.897 3.66114 30.044 1.81714 27.9264 1.81714ZM8.07346 8.40286H18.6617C19.3235 8.40286 19.9852 9.06143 19.9852 9.72C19.9852 10.5103 19.3235 11.0371 18.6617 11.0371H8.07346C7.27934 11.0371 6.74993 10.5103 6.74993 9.72C6.74993 9.06143 7.27934 8.40286 8.07346 8.40286ZM25.2793 21.5743H8.07346C7.27934 21.5743 6.74993 21.0474 6.74993 20.2571C6.74993 19.5986 7.27934 18.94 8.07346 18.94H25.2793C25.9411 18.94 26.6029 19.5986 26.6029 20.2571C26.6029 21.0474 25.9411 21.5743 25.2793 21.5743ZM25.2793 16.3057H8.07346C7.27934 16.3057 6.74993 15.7789 6.74993 14.9886C6.74993 14.33 7.27934 13.6714 8.07346 13.6714H25.2793C25.9411 13.6714 26.6029 14.33 26.6029 14.9886C26.6029 15.7789 25.9411 16.3057 25.2793 16.3057Z" fill="#37BB16"/>
</svg>
