<svg width="41" height="49" viewBox="0 0 41 49" fill="none" xmlns="http://www.w3.org/2000/svg">
<path d="M38.4375 5.32353H30.75V2.91176C30.75 2.27212 30.48 1.65868 29.9995 1.20639C29.5189 0.754096 28.8671 0.5 28.1875 0.5H12.8125C12.1329 0.5 11.4811 0.754096 11.0005 1.20639C10.52 1.65868 10.25 2.27212 10.25 2.91176V5.32353H2.5625C1.88288 5.32353 1.2311 5.57763 0.750539 6.02992C0.269977 6.48221 0 7.09565 0 7.73529V46.3235C0 46.9632 0.269977 47.5766 0.750539 48.0289C1.2311 48.4812 1.88288 48.7353 2.5625 48.7353H38.4375C39.1171 48.7353 39.7689 48.4812 40.2495 48.0289C40.73 47.5766 41 46.9632 41 46.3235V7.73529C41 7.09565 40.73 6.48221 40.2495 6.02992C39.7689 5.57763 39.1171 5.32353 38.4375 5.32353ZM15.375 5.32353H25.625V10.1471H15.375V5.32353ZM10.25 19.7941H23.0625C23.7421 19.7941 24.3939 20.0482 24.8745 20.5005C25.355 20.9528 25.625 21.5662 25.625 22.2059C25.625 22.8455 25.355 23.459 24.8745 23.9113C24.3939 24.3635 23.7421 24.6176 23.0625 24.6176H10.25C9.57038 24.6176 8.9186 24.3635 8.43804 23.9113C7.95748 23.459 7.6875 22.8455 7.6875 22.2059C7.6875 21.5662 7.95748 20.9528 8.43804 20.5005C8.9186 20.0482 9.57038 19.7941 10.25 19.7941ZM30.75 39.0882H10.25C9.57038 39.0882 8.9186 38.8341 8.43804 38.3818C7.95748 37.9295 7.6875 37.3161 7.6875 36.6765C7.6875 36.0368 7.95748 35.4234 8.43804 34.9711C8.9186 34.5188 9.57038 34.2647 10.25 34.2647H30.75C31.4296 34.2647 32.0814 34.5188 32.562 34.9711C33.0425 35.4234 33.3125 36.0368 33.3125 36.6765C33.3125 37.3161 33.0425 37.9295 32.562 38.3818C32.0814 38.8341 31.4296 39.0882 30.75 39.0882ZM30.75 31.8529H10.25C9.57038 31.8529 8.9186 31.5988 8.43804 31.1465C7.95748 30.6943 7.6875 30.0808 7.6875 29.4412C7.6875 28.8015 7.95748 28.1881 8.43804 27.7358C8.9186 27.2835 9.57038 27.0294 10.25 27.0294H30.75C31.4296 27.0294 32.0814 27.2835 32.562 27.7358C33.0425 28.1881 33.3125 28.8015 33.3125 29.4412C33.3125 30.0808 33.0425 30.6943 32.562 31.1465C32.0814 31.5988 31.4296 31.8529 30.75 31.8529Z" fill="#C53232"/>
</svg>
